<?xml version="1.0" encoding="UTF-8"?>
<svg width="179px" height="179px" viewBox="0 0 179 179" version="1.1" xmlns="http://www.w3.org/2000/svg" xmlns:xlink="http://www.w3.org/1999/xlink">
    <!-- Generator: Sketch 57.1 (83088) - https://sketch.com -->
    <title>Group 18</title>
    <desc>Created with Sketch.</desc>
    <g id="Website" stroke="none" stroke-width="1" fill="none" fill-rule="evenodd">
        <g id="Desktop-HD-Copy-5" transform="translate(-448.000000, -786.000000)">
            <g id="Group-5" transform="translate(72.000000, 786.000000)">
                <g id="Group-4" transform="translate(322.000000, 0.000000)">
                    <g id="Group-18" transform="translate(54.000000, 0.000000)">
                        <rect id="Rectangle" fill="#FFFFFF" x="0" y="0" width="179" height="179"></rect>
                        <g id="noun_build_1790725" transform="translate(33.000000, 39.000000)" fill="#61BB87" fill-rule="nonzero">
                            <g id="Group" transform="translate(0.000000, 75.629921)">
                                <path d="M13.4628906,0.114127371 C12.7875391,0.114127371 12.1130703,0.575060397 11.5983906,1.49515703 L0.44140625,21.4382516 C-0.588835938,23.2793296 0.246304688,24.7718325 2.30590625,24.7718325 L24.619875,24.7718325 C26.6794766,24.7718325 27.5155,23.2784449 26.484375,21.4382516 L15.3282734,1.49427232 C14.8127109,0.573290981 14.1382422,0.114127371 13.4628906,0.114127371 L13.4628906,0.114127371 Z" id="Path"></path>
                                <path d="M99.5371094,0.114127371 C98.860875,0.114127371 98.1872891,0.575060397 97.6734922,1.49515703 L86.515625,21.4382516 C85.4862656,23.2784449 86.3205234,24.7718325 88.3792422,24.7718325 L110.692328,24.7718325 C112.752813,24.7718325 113.58707,23.2784449 112.556828,21.4382516 L101.399844,1.49427232 C100.88693,0.573290981 100.213344,0.114127371 99.5371094,0.114127371 L99.5371094,0.114127371 Z" id="Path"></path>
                                <g transform="translate(28.250000, 0.000000)" id="Path">
                                    <path d="M13.4628906,0.114127371 C12.7884219,0.114127371 12.1130703,0.575060397 11.5983906,1.49515703 L0.44140625,21.4382516 C-0.588835938,23.2784449 0.246304688,24.7718325 2.30590625,24.7718325 L24.619875,24.7718325 C26.6794766,24.7718325 27.5146172,23.2784449 26.484375,21.4382516 L15.3273906,1.49427232 C14.8127109,0.573290981 14.1373594,0.114127371 13.4628906,0.114127371 L13.4628906,0.114127371 Z"></path>
                                    <path d="M43.0371094,0.114127371 C42.360875,0.114127371 41.6872891,0.575060397 41.1734922,1.49515703 L30.015625,21.4382516 C28.9862656,23.2784449 29.8205234,24.7718325 31.8792422,24.7718325 L54.1923281,24.7718325 C56.2528125,24.7718325 57.0870703,23.2784449 56.0568281,21.4382516 L44.9024922,1.49427232 C44.3869297,0.573290981 43.7133438,0.114127371 43.0371094,0.114127371 L43.0371094,0.114127371 Z"></path>
                                </g>
                            </g>
                            <g id="Group" transform="translate(14.236220, 49.826772)">
                                <path d="M70.8798802,0.223831201 C70.2054208,0.223831201 69.5336028,0.684764227 69.0211544,1.60574557 L57.892573,21.5488401 C56.8659154,23.3890334 57.6979835,24.882421 59.7512988,24.882421 L82.0058202,24.882421 C84.0608965,24.882421 84.8929646,23.3890334 83.8654265,21.5488401 L72.740367,1.60486086 C72.2261577,0.683879519 71.5543397,0.223831201 70.8798802,0.223831201 L70.8798802,0.223831201 Z" id="Path"></path>
                                <g id="Path">
                                    <path d="M13.6476788,0.223831201 C12.9749803,0.223831201 12.3014013,0.684764227 11.7880725,1.60574557 L0.660371555,21.5488401 C-0.367166585,23.3890334 0.46578207,24.882421 2.51997785,24.882421 L24.7753798,24.882421 C26.8295755,24.882421 27.6625242,23.3890334 26.6349861,21.5488401 L15.5081656,1.60486086 C14.9939563,0.683879519 14.3212578,0.223831201 13.6476788,0.223831201 L13.6476788,0.223831201 Z"></path>
                                    <path d="M42.2637795,0.223831201 C41.5902005,0.223831201 40.9175021,0.684764227 40.4041732,1.60574557 L29.2764723,21.5488401 C28.2489341,23.3890334 29.0818828,24.882421 31.1360786,24.882421 L53.392361,24.882421 C55.4456763,24.882421 56.2786249,23.3890334 55.2510868,21.5488401 L44.1242663,1.60486086 C43.610057,0.683879519 42.938239,0.223831201 42.2637795,0.223831201 L42.2637795,0.223831201 Z"></path>
                                </g>
                            </g>
                            <path d="M41.8188976,24.9133858 C41.1502572,24.9133858 40.4807415,25.3781878 39.9705093,26.3086856 L28.9099357,46.458745 C27.8885962,48.3188468 28.7165201,49.8267717 30.758324,49.8267717 L52.8794712,49.8267717 C54.9212752,49.8267717 55.7491991,48.3188468 54.7278595,46.458745 L43.6681611,26.3095794 C43.1570538,25.3790817 42.4884133,24.9133858 41.8188976,24.9133858 L41.8188976,24.9133858 Z" id="Path"></path>
                            <path d="M71.1819097,24.9133858 C70.5114793,24.9133858 69.8436747,25.3781878 69.3342878,26.3086856 L58.2721877,46.458745 C57.250788,48.3188468 58.0787607,49.8267717 60.1198096,49.8267717 L82.241384,49.8267717 C84.2841834,49.8267717 85.1112808,48.3188468 84.0898811,46.458745 L73.031282,26.3095794 C72.5201446,25.3790817 71.85234,24.9133858 71.1819097,24.9133858 L71.1819097,24.9133858 Z" id="Path"></path>
                            <path d="M56.9448711,0 C56.275356,0 55.6067161,0.465695824 55.0964843,1.39529977 L44.0359196,21.5453592 C43.0145809,23.405461 43.8425042,24.9133858 45.8843065,24.9133858 L68.006311,24.9133858 C70.0472381,24.9133858 70.8751614,23.405461 69.8538226,21.5453592 L58.7941331,1.39529977 C58.2830262,0.465695824 57.6152614,0 56.9448711,0 L56.9448711,0 Z" id="Path"></path>
                        </g>
                    </g>
                </g>
            </g>
        </g>
    </g>
</svg>