<?xml version="1.0" encoding="UTF-8"?>
<svg width="179px" height="179px" viewBox="0 0 179 179" version="1.1" xmlns="http://www.w3.org/2000/svg" xmlns:xlink="http://www.w3.org/1999/xlink">
    <!-- Generator: Sketch 57.1 (83088) - https://sketch.com -->
    <title>Group 17</title>
    <desc>Created with Sketch.</desc>
    <g id="Website" stroke="none" stroke-width="1" fill="none" fill-rule="evenodd">
        <g id="Desktop-HD-Copy-5" transform="translate(-95.000000, -788.000000)">
            <g id="Group-5" transform="translate(72.000000, 788.000000)">
                <g id="Group-4">
                    <g id="Group-17" transform="translate(23.000000, 0.000000)">
                        <rect id="Rectangle" fill="#FFFFFF" x="0" y="0" width="179" height="179"></rect>
                        <g id="noun_contest_2750041" transform="translate(33.000000, 37.000000)" fill="#61BB87" fill-rule="nonzero">
                            <path d="M105.782184,92.5111804 C107.931352,90.9388272 109.331169,88.4373122 109.331169,85.6153846 C109.331169,80.8645833 105.381443,77 100.525974,77 C95.6705053,77 91.7207792,80.8645834 91.7207792,85.6153846 C91.7207792,88.4373122 93.1205959,90.9388272 95.2697644,92.5111804 C92.8162335,93.6330629 90.7913899,95.5041817 89.5194805,97.8332207 C88.2475713,95.5041817 86.2227275,93.6330629 83.7691967,92.5111804 C85.9183651,90.9388272 87.3181818,88.4373122 87.3181818,85.6153846 C87.3181818,80.8645833 83.3684557,77 78.512987,77 C73.6575183,77 69.7077922,80.8645834 69.7077922,85.6153846 C69.7077922,88.4373122 71.1076089,90.9388272 73.2567773,92.5111804 C70.8032465,93.6330629 68.7784029,95.5041817 67.5064935,97.8332207 C66.2345843,95.5041817 64.2097405,93.6330629 61.7562097,92.5111804 C63.9053781,90.9388272 65.3051948,88.4373122 65.3051948,85.6153846 C65.3051948,80.8645833 61.3554687,77 56.5,77 C51.6445313,77 47.6948052,80.8645834 47.6948052,85.6153846 C47.6948052,88.4373122 49.0946219,90.9388272 51.2437903,92.5111804 C48.7902595,93.6330629 46.7654159,95.5041817 45.4935065,97.8332207 C44.2215973,95.5041817 42.1967535,93.6330629 39.7432227,92.5111804 C41.8923911,90.9388272 43.2922078,88.4373122 43.2922078,85.6153846 C43.2922078,80.8645833 39.3424817,77 34.487013,77 C29.6315443,77 25.6818182,80.8645834 25.6818182,85.6153846 C25.6818182,88.4373122 27.0816349,90.9388272 29.2308033,92.5111804 C26.7772725,93.6330629 24.7524288,95.5041817 23.4805195,97.8332207 C22.2086103,95.5041817 20.1837665,93.6330629 17.7302356,92.5111804 C19.8794041,90.9388272 21.2792208,88.4373122 21.2792208,85.6153846 C21.2792208,80.8645833 17.3294947,77 12.474026,77 C7.6185573,77 3.66883117,80.8645834 3.66883117,85.6153846 C3.66883117,88.4373122 5.06864787,90.9388272 7.2178163,92.5111804 C2.96265278,94.456881 0,98.6736027 0,103.564103 C0,104.357772 0.65637679,105 1.46753247,105 L23.4805195,105 L45.4935065,105 L67.5064935,105 L89.5194805,105 L111.532468,105 C112.343623,105 113,104.357772 113,103.564103 C113,98.6736027 110.037347,94.456881 105.782184,92.5111804 Z" id="Path"></path>
                            <path d="M1.46753247,72 L23.4805195,72 L45.4935065,72 L67.5064935,72 L89.5194805,72 L111.532468,72 C112.343623,72 113,71.3577725 113,70.5641026 C113,65.6736027 110.037347,61.456881 105.782184,59.5111804 C107.931352,57.9388272 109.331169,55.4373122 109.331169,52.6153846 C109.331169,47.8645833 105.381443,44 100.525974,44 C95.6705053,44 91.7207792,47.8645834 91.7207792,52.6153846 C91.7207792,55.4373122 93.1205959,57.9388272 95.2697644,59.5111804 C92.8162335,60.6330629 90.7913899,62.5041817 89.5194805,64.8332207 C88.2475713,62.5041817 86.2227275,60.6330629 83.7691967,59.5111804 C85.9183651,57.9388272 87.3181818,55.4373122 87.3181818,52.6153846 C87.3181818,47.8645833 83.3684557,44 78.512987,44 C73.6575183,44 69.7077922,47.8645834 69.7077922,52.6153846 C69.7077922,55.4373122 71.1076089,57.9388272 73.2567773,59.5111804 C70.8032465,60.6330629 68.7784029,62.5041817 67.5064935,64.8332207 C66.2345843,62.5041817 64.2097405,60.6330629 61.7562097,59.5111804 C63.9053781,57.9388272 65.3051948,55.4373122 65.3051948,52.6153846 C65.3051948,47.8645833 61.3554687,44 56.5,44 C51.6445313,44 47.6948052,47.8645834 47.6948052,52.6153846 C47.6948052,55.4373122 49.0946219,57.9388272 51.2437903,59.5111804 C48.7902595,60.6330629 46.7654159,62.5041817 45.4935065,64.8332207 C44.2215973,62.5041817 42.1967535,60.6330629 39.7432227,59.5111804 C41.8923911,57.9388272 43.2922078,55.4373122 43.2922078,52.6153846 C43.2922078,47.8645833 39.3424817,44 34.487013,44 C29.6315443,44 25.6818182,47.8645834 25.6818182,52.6153846 C25.6818182,55.4373122 27.0816349,57.9388272 29.2308033,59.5111804 C26.7772725,60.6330629 24.7524288,62.5041817 23.4805195,64.8332207 C22.2086103,62.5041817 20.1837665,60.6330629 17.7302356,59.5111804 C19.8794041,57.9388272 21.2792208,55.4373122 21.2792208,52.6153846 C21.2792208,47.8645833 17.3294947,44 12.474026,44 C7.6185573,44 3.66883117,47.8645834 3.66883117,52.6153846 C3.66883117,55.4373122 5.06864787,57.9388272 7.2178163,59.5111804 C2.96265278,61.456881 0,65.6736027 0,70.5641026 C0,71.3577725 0.65637679,72 1.46753247,72 Z" id="Path"></path>
                            <path d="M66.6950413,17.1027167 C70.8950738,16.130238 76,12.9191229 76,5.09090909 C76,4.28693178 75.3539497,3.63636364 74.5555556,3.63636364 L72.2488878,3.63636364 C72.3756646,2.42001062 72.3888889,1.59161935 72.3888889,1.45454545 C72.3888889,0.650568145 71.7428386,0 70.9444444,0 L42.0555556,0 C41.2571614,0 40.6111111,0.650568145 40.6111111,1.45454545 C40.6111111,1.59161935 40.6245117,2.42001062 40.7511122,3.63636364 L38.4444444,3.63636364 C37.6460503,3.63636364 37,4.28693178 37,5.09090909 C37,12.9191229 42.1049262,16.130238 46.3049587,17.1027167 C47.6686469,18.5395065 49.3479547,19.7838246 51.4444444,20.6477273 L51.4444444,22.9289773 L47.985677,29.8948864 C47.7613932,30.3451705 47.7853732,30.8806819 48.0491536,31.3096592 C48.312934,31.7386365 48.7770182,32 49.2777778,32 L63.7222222,32 C64.2229818,32 64.687066,31.7386364 64.9508463,31.3096591 C65.2146266,30.8806817 65.2386068,30.3451705 65.0143228,29.8948863 L61.5555556,22.9289773 L61.5555556,20.6477273 C63.6520453,19.7838246 65.3313531,18.5395063 66.6950413,17.1027167 Z M71.8006727,6.54545455 L73.0321181,6.54545455 C72.7013346,9.50079898 71.3644477,11.3628374 69.8064507,12.5379971 C70.8079699,10.47239 71.4272189,8.36523433 71.8006727,6.54545455 Z M39.9664713,6.54545455 L41.1993272,6.54545455 C41.5748969,8.37597658 42.1980252,10.4974255 43.2101235,12.5746627 C41.6438395,11.4016335 40.2969021,9.53222662 39.9664713,6.54545455 Z" id="Shape"></path>
                            <path d="M37.5555555,40 C37.953559,40 38.3515625,39.8480902 38.6553819,39.5442708 L42.5442708,35.6553819 C43.1519097,35.047743 43.1519097,34.063368 42.5442708,33.4557292 C41.9366319,32.8480903 40.9522569,32.8480903 40.3446181,33.4557292 L36.4557292,37.344618 C35.8480903,37.9522569 35.8480903,38.9366319 36.4557292,39.5442708 C36.7595486,39.8480904 37.157552,40 37.5555555,40 Z" id="Path"></path>
                            <path d="M30.4303512,32 C30.6451718,32 30.8627823,31.946831 31.0678384,31.8359356 L38.2099258,27.9470024 C38.9157649,27.5626665 39.2017273,26.628411 38.8488078,25.8597391 C38.4958883,25.0910672 37.6380007,24.7811677 36.9321616,25.1639847 L29.7900742,29.0529178 C29.0842351,29.4372537 28.7982727,30.3715093 29.1511922,31.1401812 C29.4022811,31.6855434 29.9058542,32 30.4303512,32 Z" id="Path"></path>
                            <path d="M23.4303512,25 C23.6451718,25 23.8627823,24.9468259 24.0678384,24.8359199 L31.2099258,20.9466165 C31.9157649,20.562244 32.2017273,19.6278995 31.8488078,18.8591544 C31.4944933,18.0904093 30.6380007,17.7819997 29.9321616,18.1633337 L22.7900742,22.0526372 C22.0842351,22.4370097 21.7982727,23.3713542 22.1511922,24.1400993 C22.4022811,24.6855134 22.9058542,25 23.4303512,25 Z" id="Path"></path>
                            <path d="M18,12.5 C18,13.3291016 18.6389509,14 19.4285714,14 L26.5714286,14 C27.3610491,14 28,13.3291016 28,12.5 C28,11.6708984 27.3610491,11 26.5714286,11 L19.4285714,11 C18.6389509,11 18,11.6708984 18,12.5 Z" id="Path"></path>
                            <path d="M25.4557292,0.45572919 C24.8480903,1.06336808 24.8480903,2.04774309 25.4557292,2.65538199 L29.3446181,6.54427091 C29.6484375,6.84809035 30.0464409,7 30.4444444,7 C30.8424479,7 31.2404514,6.8480902 31.5442708,6.54427075 C32.1519097,5.93663186 32.1519097,4.95225685 31.5442708,4.34461796 L27.6553819,0.455729034 C27.0477431,-0.151909704 26.0633681,-0.151909704 25.4557292,0.45572919 Z" id="Path"></path>
                            <path d="M73.3446181,39.5442709 C73.6484375,39.8480904 74.0464409,40 74.4444444,40 C74.8424479,40 75.2404514,39.8480902 75.5442708,39.5442708 C76.1519097,38.9366319 76.1519097,37.9522569 75.5442708,37.344618 L71.6553819,33.4557292 C71.0477431,32.8480903 70.0633681,32.8480903 69.4557292,33.4557292 C68.8480903,34.063368 68.8480903,35.047743 69.4557292,35.6553819 L73.3446181,39.5442709 Z" id="Path"></path>
                            <path d="M81.5696488,32 C82.0941458,32 82.5977189,31.6855434 82.8488078,31.1401812 C83.2017273,30.3715093 82.9157649,29.4372537 82.2099258,29.0529178 L75.0678384,25.1639847 C74.3606043,24.7811677 73.5055067,25.0910672 73.1511922,25.8597391 C72.7982727,26.628411 73.0842351,27.5626665 73.7900742,27.9470024 L80.9321616,31.8359356 C81.1372178,31.946831 81.3548282,32 81.5696488,32 Z" id="Path"></path>
                            <path d="M88.5696488,25 C89.0941458,25 89.5977189,24.6855134 89.8488078,24.1400993 C90.2017273,23.3713542 89.9157649,22.4370097 89.2099258,22.0526372 L82.0678384,18.1633337 C81.3633941,17.7819997 80.5055067,18.0904093 80.1511922,18.8591544 C79.7982727,19.6278995 80.0842351,20.562244 80.7900742,20.9466165 L87.9321616,24.8359199 C88.1372178,24.9468259 88.3548282,25 88.5696488,25 Z" id="Path"></path>
                            <path d="M94,12.5 C94,11.6708984 93.3610491,11 92.5714286,11 L85.4285714,11 C84.6389509,11 84,11.6708984 84,12.5 C84,13.3291016 84.6389509,14 85.4285714,14 L92.5714286,14 C93.3610491,14 94,13.3291016 94,12.5 Z" id="Path"></path>
                            <path d="M84.3446181,0.455729244 L80.4557292,4.34461813 C79.8480903,4.95225702 79.8480903,5.93663202 80.4557292,6.54427091 C80.7595486,6.84809036 81.157552,7 81.5555555,7 C81.953559,7 82.3515625,6.8480902 82.6553819,6.54427076 L86.5442708,2.65538187 C87.1519097,2.04774298 87.1519097,1.06336798 86.5442708,0.455729089 C85.9366319,-0.1519098 84.9522569,-0.151909644 84.3446181,0.455729244 Z" id="Path"></path>
                        </g>
                    </g>
                </g>
            </g>
        </g>
    </g>
</svg>