<?xml version="1.0" encoding="UTF-8"?>
<svg width="179px" height="179px" viewBox="0 0 179 179" version="1.1" xmlns="http://www.w3.org/2000/svg" xmlns:xlink="http://www.w3.org/1999/xlink">
    <!-- Generator: Sketch 57.1 (83088) - https://sketch.com -->
    <title>Group 20</title>
    <desc>Created with Sketch.</desc>
    <g id="Website" stroke="none" stroke-width="1" fill="none" fill-rule="evenodd">
        <g id="Desktop-HD-Copy-5" transform="translate(-1154.000000, -785.000000)">
            <g id="Group-5" transform="translate(72.000000, 785.000000)">
                <g id="Group-4" transform="translate(1054.000000, 0.000000)">
                    <g id="Group-20" transform="translate(28.000000, 0.000000)">
                        <rect id="Rectangle" fill="#FFFFFF" x="0" y="0" width="179" height="179"></rect>
                        <g id="noun_Prize_776590" transform="translate(40.000000, 40.000000)" fill="#61BB87" fill-rule="nonzero">
                            <path d="M90.2727273,89.3636364 C90.1238698,89.5458539 90.1238698,89.8076814 90.2727273,89.989899 L94.9494949,95.6161616 C95.131705,95.8427373 95.168166,96.1536058 95.0433289,96.4161943 C94.9184917,96.6787827 94.6543837,96.8467578 94.3636364,96.8484848 L77.7777778,96.8484848 L77.7777778,82.3434343 L94.3434343,82.3434343 C94.6378297,82.3372836 94.9091184,82.5022785 95.0390692,82.7665117 C95.16902,83.030745 95.1340872,83.3463406 94.9494949,83.5757576 L90.2727273,89.3636364 Z M4.04040404,83.5757576 L8.66666667,89.2020202 C8.81552415,89.3842378 8.81552415,89.6460653 8.66666667,89.8282828 L4.04040404,95.6161616 C3.85819401,95.8427373 3.82173299,96.1536058 3.94657013,96.4161943 C4.07140727,96.6787827 4.33551526,96.8467578 4.62626263,96.8484848 L21.2121212,96.8484848 L21.2121212,82.3434343 L4.66666667,82.3434343 C4.36862409,82.3290161 4.08987909,82.4908943 3.95469303,82.7569056 C3.81950698,83.0229169 3.85306372,83.3435058 4.04040404,83.5757576 Z M98.7576167,12.5555556 L98.7576167,24.6767677 C98.7683024,29.9837797 96.6703818,35.0776903 92.9253348,38.8378918 C89.1802878,42.5980932 84.0948909,44.7165677 78.7878788,44.7272727 L76.1515152,44.7272727 C72.3291202,53.1775091 64.7307789,59.3183776 55.6666667,61.2828283 L55.6666667,70.9393939 L62.8383838,70.9393939 C63.9099656,70.9393939 64.9376582,71.3650781 65.6953809,72.1228009 C66.4531037,72.8805236 66.8787879,73.9082162 66.8787879,74.979798 L66.8787879,80.2020202 L70.4646465,80.2020202 C71.8760408,80.2020202 73.020202,81.3461814 73.020202,82.7575758 L73.020202,96.4343434 C73.0202876,97.1191778 72.7455031,97.7753923 72.2574691,98.2558305 C71.769435,98.7362686 71.1089912,99.0007264 70.4242424,98.9902188 L28.5656566,98.9902188 C27.8878811,98.9902188 27.2378655,98.7206537 26.7586059,98.2413941 C26.2793463,97.7621345 26.010101,97.1121189 26.010101,96.4343434 L26.010101,82.7575758 C26.010101,82.0798003 26.2793463,81.4297847 26.7586059,80.9505251 C27.2378655,80.4712655 27.8878811,80.2020202 28.5656566,80.2020202 L32.1515152,80.2020202 L32.1515152,74.9393939 C32.1515152,72.7079404 33.9604657,70.8989899 36.1919192,70.8989899 L43.3636364,70.8989899 L43.3636364,61.2828283 C34.2843446,59.3299489 26.6689526,53.1874157 22.8383838,44.7272727 L20.2020202,44.7272727 C9.16652862,44.70499 0.23206796,35.7526858 0.23206796,24.7171717 L0.23206796,12.5959596 C0.22151849,11.7397522 0.554097314,10.9148874 1.15576766,10.305625 C1.75743801,9.69636259 2.57806785,9.35346718 3.43434343,9.35353535 L20.2020202,9.35353535 L20.2020202,3.2020202 C20.201952,2.34574461 20.5448474,1.52511478 21.1541098,0.923444431 C21.7633722,0.321774082 22.588237,-0.010804742 23.4444444,-0.000255272656 L75.5454545,-0.000255272656 C76.401662,-0.010804742 77.2265267,0.321774082 77.8357892,0.923444431 C78.4450516,1.52511478 78.787947,2.34574461 78.7878788,3.2020202 L78.7878788,9.36363636 L95.5555556,9.36363636 C97.3200453,9.36362758 98.7520095,10.7910746 98.7576167,12.5555556 Z M20.3131313,34.5959596 C20.3131313,33.959596 20.2424242,33.3232323 20.2424242,32.6767677 L20.2424242,19.4848485 L10.3636364,19.4848485 L10.3636364,24.7171717 C10.36912,30.1550505 14.7642096,34.5681897 20.2020202,34.5959596 L20.3131313,34.5959596 Z M59.5353535,34.7979798 C59.5353535,30.6969697 57.3434343,28.1818182 51.9191919,26.2626263 C48.040404,24.8080808 46.4646465,23.8484848 46.4646465,22.3434343 C46.4646465,21.0707071 47.4242424,19.7878788 50.3838384,19.7878788 C51.7515234,19.7815522 53.1127643,19.975529 54.4242424,20.3636364 C54.6600069,20.4356967 54.9049894,20.4731246 55.1515152,20.4747475 C56.463201,20.4519423 57.5602043,19.4716349 57.7297741,18.170756 C57.8993439,16.8698771 57.0902932,15.6411153 55.8282828,15.2828283 C54.4670524,14.9310241 53.0716963,14.7278169 51.6666667,14.6767677 L51.6666667,12.8989899 C51.6666667,11.6633225 50.6649603,10.6616162 49.4292929,10.6616162 C48.1936255,10.6616162 47.1919192,11.6633225 47.1919192,12.8989899 L47.1919192,15 C42.3131313,15.959596 39.4848485,19.1010101 39.4848485,23.0808081 C39.4848485,27.5050505 42.8181818,29.7878788 47.6969697,31.4242424 C51.0505051,32.6060606 52.5252525,33.7070707 52.5252525,35.4343434 C52.5252525,37.1616162 50.7474747,38.2626263 48.1414141,38.2626263 C46.4539427,38.240361 44.7816865,37.9400375 43.1919192,37.3737374 C42.9093798,37.275 42.6124223,37.2238004 42.3131313,37.2222222 C41.1314416,37.212214 40.094529,38.0075968 39.7979798,39.1515152 L39.7474747,39.3636364 C39.4022496,40.7162944 40.1670852,42.1044931 41.4949495,42.5353535 C43.2574567,43.1099772 45.08806,43.4496068 46.9393939,43.5454545 L46.9393939,45.6565657 C46.9393939,46.8922331 47.9411003,47.8939394 49.1767677,47.8939394 C50.4124351,47.8939394 51.4141414,46.8922331 51.4141414,45.6565657 L51.4141414,43.2424242 C56.6565657,42.3232323 59.5353535,38.8585859 59.5353535,34.7979798 Z M88.6262626,19.4848485 L78.7878788,19.4848485 L78.7878788,32.6868687 C78.7878788,33.3333333 78.7878788,33.969697 78.7171717,34.6060606 L78.7878788,34.6060606 C84.2414748,34.6004929 88.6610989,30.1808687 88.6666667,24.7272727 L88.6262626,19.4848485 Z" id="Shape"></path>
                        </g>
                    </g>
                </g>
            </g>
        </g>
    </g>
</svg>