<?xml version="1.0" encoding="utf-8"?>
<!-- Generator: Adobe Illustrator 22.1.0, SVG Export Plug-In . SVG Version: 6.00 Build 0)  -->
<svg version="1.1" id="Layer_1" xmlns="http://www.w3.org/2000/svg" xmlns:xlink="http://www.w3.org/1999/xlink" x="0px" y="0px"
	 viewBox="0 0 400 400" style="enable-background:new 0 0 400 400;" xml:space="preserve">
<style type="text/css">
	.st0{fill:url(#SVGID_1_);}
	.st1{fill:none;stroke:#FFFFFF;stroke-width:3;stroke-linecap:round;stroke-miterlimit:10;}
	.st2{fill:#FFFFFF;}
	.st3{fill:none;stroke:#000000;stroke-width:3;stroke-linecap:round;stroke-miterlimit:10;}
	.st4{fill:#00340E;}
	.st5{fill:none;stroke:#00340E;stroke-width:3;stroke-linecap:round;stroke-miterlimit:10;}
	.st6{fill:#103C22;}
	.st7{fill:none;stroke:#103C22;stroke-width:3;stroke-linecap:round;stroke-miterlimit:10;}
	.st8{fill:url(#SVGID_2_);}
	.st9{fill:#00551F;}
	.st10{fill:none;stroke:#00551F;stroke-width:3;stroke-linecap:round;stroke-miterlimit:10;}
	.st11{fill:url(#SVGID_3_);}
	.st12{fill:#50A947;}
	.st13{fill:none;stroke:#50A947;stroke-width:3;stroke-linecap:round;stroke-miterlimit:10;}
	.st14{font-family:'AvenirNext-Regular';}
	.st15{font-size:40px;}
	.st16{fill:url(#SVGID_4_);}
	.st17{fill:url(#SVGID_5_);}
	.st18{fill:url(#SVGID_6_);}
	.st19{fill:url(#SVGID_7_);}
	.st20{fill:url(#SVGID_8_);}
	.st21{fill:url(#SVGID_9_);}
	.st22{fill:none;stroke:url(#SVGID_10_);stroke-width:3;stroke-linecap:round;stroke-miterlimit:10;}
	.st23{fill:none;stroke:url(#SVGID_11_);stroke-width:3;stroke-linecap:round;stroke-miterlimit:10;}
	.st24{fill:none;stroke:url(#SVGID_12_);stroke-width:3;stroke-linecap:round;stroke-miterlimit:10;}
	.st25{fill:none;stroke:url(#SVGID_13_);stroke-width:3;stroke-linecap:round;stroke-miterlimit:10;}
	.st26{fill:#00802F;}
	.st27{fill:none;stroke:#00802F;stroke-width:3;stroke-linecap:round;stroke-miterlimit:10;}
</style>
<text transform="matrix(1 0 0 1 132.9681 262.6543)" class="st2 st14 st15">HEDGE</text>
<g>
	<path class="st1" d="M231,153.2c5.8-2.8,10.3-3.8,12.8-4.2c0.6-0.1,0.7-0.9,0.2-1.1c-2-0.9-5.3-2.3-9.7-3.8c-1.2-0.4-2.3-1-3.3-1.8
		c-2.7-2.1-8-6.2-9.9-7.9l-0.7,5.4c0,0-14.4-6.5-16.6-7.5l0.2,5.4c0,0,0,0,0,0c-0.2-0.1-15.1-4.2-17.4-4.9l0.4,5.5
		c0,0-20.5-2.1-22.6-2.3l4.8,7.3c0,0-13.7,1-17.7,0.7l6.7,5.8c0,0-14,6.1-16.3,7.2c-0.2,0.1,8.3,5.5,8.3,5.5l-11,10.9l10.2,0.5
		l-8,14.4l17.1,1.2c0,0,0,0,0,0l4.1,9.6l19-4.9c13.9-3.4,24.3-15.8,29.6-23.8c3.2-4.7,6.6-8.6,11.1-12"/>
	<polyline class="st1" points="231,153.2 215.4,146.9 222.1,158.4 	"/>
	<path class="st1" d="M246.5,152l7.2,8c0.2,0.2,0.4,0.3,0.6,0.3l9.2,1c0.5,0.1,0.9,0.5,0.9,1v3.4c0,0.2-0.1,0.5-0.3,0.7l-23.8,26.3
		c-0.3,0.3-0.3,0.7-0.2,1.1l3.2,7.6c0.3,0.7-0.2,1.4-0.9,1.4h-6.6c-0.4,0-0.7-0.2-0.9-0.6l-3.8-7.9c-0.2-0.4-0.6-0.6-1-0.6l-43,3.7
		c-0.7,0-1.1,0.8-0.9,1.4l1.7,4c0.3,0.7-0.2,1.4-0.9,1.4h-9.7c-0.4,0-0.8-0.3-0.9-0.7l-1.5-4"/>
	<path class="st1" d="M247,201.7h4.7c0.6,0,1-0.6,0.7-1.1l-5.2-9.3"/>
</g>
</svg>
