<?xml version="1.0" encoding="UTF-8"?>
<svg width="76px" height="87px" viewBox="0 0 76 87" version="1.1" xmlns="http://www.w3.org/2000/svg" xmlns:xlink="http://www.w3.org/1999/xlink">
    <!-- Generator: Sketch 57.1 (83088) - https://sketch.com -->
    <title>medal</title>
    <desc>Created with Sketch.</desc>
    <g id="Website" stroke="none" stroke-width="1" fill="none" fill-rule="evenodd">
        <g id="Desktop-HD-Copy-13" transform="translate(-254.000000, -1952.000000)" stroke="#000000" stroke-width="2.34375">
            <g id="Group-10" transform="translate(107.000000, 1887.000000)">
                <g id="Group-5" transform="translate(37.000000, 67.000000)">
                    <g id="Group-3">
                        <g id="medal" transform="translate(111.000000, 0.000000)">
                            <g id="noun_winning-medal_1214272">
                                <g id="Group">
                                    <g>
                                        <path d="M28.3806818,44.3625 C21.8986742,32.4625 16.2050189,12.1625 9.72301136,0.2625" id="Path"></path>
                                        <path d="M55.0094697,53.375 C61.0535038,38.2375 67.0099432,23.8875 73.0539773,8.75 C70.0757576,5.8625 67.1851326,2.975 64.2069129,0.0875 C45.9872159,0.175 27.6799242,0.175 9.46022727,0.2625 C6.48200758,3.2375 3.41619318,6.125 0.437973485,9.1 C6.21922348,24.325 12.0004735,37.8 17.6941288,53.025" id="Path"></path>
                                        <path d="M63.7689394,0.6125 C57.3745265,15.225 50.8925189,29.925 44.4981061,44.5375" id="Path"></path>
                                        <path d="M16.8181818,17.0625 L55.9730114,17.0625" id="Path"></path>
                                        <ellipse id="Oval" cx="36.4393939" cy="62.7375" rx="21.110322" ry="21.0875"></ellipse>
                                    </g>
                                    <polygon id="Path" points="36.7897727 51.7125 40.2059659 58.625 47.8267045 59.7625 42.3082386 65.1 43.6221591 72.7125 36.7897727 69.125 29.9573864 72.7125 31.2713068 65.1 25.7528409 59.7625 33.3735795 58.625"></polygon>
                                </g>
                            </g>
                        </g>
                    </g>
                </g>
            </g>
        </g>
    </g>
</svg>