<?xml version="1.0" encoding="UTF-8"?>
<svg width="90px" height="80px" viewBox="0 0 90 80" version="1.1" xmlns="http://www.w3.org/2000/svg" xmlns:xlink="http://www.w3.org/1999/xlink">
    <!-- Generator: Sketch 57.1 (83088) - https://sketch.com -->
    <title>piggybank</title>
    <desc>Created with Sketch.</desc>
    <g id="Website" stroke="none" stroke-width="1" fill="none" fill-rule="evenodd">
        <g id="Desktop-HD-Copy-13" transform="translate(-1061.000000, -1539.000000)">
            <g id="Group-10" transform="translate(921.000000, 1469.000000)">
                <g id="Group-5" transform="translate(38.000000, 72.000000)">
                    <g id="Group-3">
                        <g id="piggybank" transform="translate(103.000000, 0.000000)">
                            <path d="M51.961,44.213 C51.029,43.493 48.852,43.057 45.424,42.907 C42.499,42.767 40.742,42.505 40.149,42.117 C39.559,41.729 39.262,40.649 39.262,38.876 C39.262,37.296 39.639,36.277 40.392,35.82 C41.145,35.363 42.822,35.134 45.424,35.134 C47.615,35.134 49.008,35.375 49.6,35.851 C50.192,36.331 50.487,37.455 50.487,39.23 L52.954,39.23 C52.954,36.661 52.453,34.987 51.455,34.208 C50.588,33.532 48.854,33.149 46.264,33.06 L46.264,28.394 L43.743,28.394 L43.743,33.064 C41.202,33.164 39.459,33.574 38.522,34.297 C37.434,35.134 36.893,36.806 36.893,39.311 C36.893,42.923 38.758,44.858 42.489,45.116 L44.94,45.246 L47.519,45.375 C48.938,45.46 49.869,45.726 50.317,46.171 C50.764,46.619 50.986,47.513 50.986,48.857 C50.986,50.931 50.657,52.208 50.003,52.687 C49.348,53.165 47.596,53.405 44.746,53.405 C42.264,53.405 40.722,53.165 40.119,52.687 C39.515,52.208 39.215,50.986 39.215,49.019 L39.215,48.47 L36.749,48.47 L36.765,49.453 C36.765,51.883 37.29,53.499 38.337,54.299 C39.277,55.018 41.086,55.413 43.743,55.486 L43.743,60.308 L46.264,60.308 L46.264,55.469 C49.012,55.365 50.849,54.98 51.752,54.308 C52.822,53.512 53.356,51.76 53.356,49.051 C53.355,46.545 52.891,44.934 51.961,44.213 Z" id="Path" fill="#000000" fill-rule="nonzero"></path>
                            <path d="M33.197,12.634 C32.41,12.823 32.826,13.033 32.062,13.263 C18.396,17.39 8.66,28.067 8.66,40.588 C8.66,48.661 17.955,59.713 17.955,59.713 C18.663,60.555 19.052,62.124 18.819,63.198 L17.264,70.384 C17.032,71.459 17.722,72.521 18.8,72.744 L32.9,75.661 C33.976,75.884 35.048,75.186 35.281,74.112 L35.971,70.92 C36.203,69.845 37.284,69.093 38.373,69.25 C38.373,69.25 41.774,69.738 44.599,69.738 C47.626,69.738 51.398,69.162 51.398,69.162 C52.485,68.995 53.565,69.74 53.797,70.815 L54.51,74.113 C54.742,75.188 55.814,75.885 56.892,75.663 L70.992,72.746 C72.068,72.523 72.76,71.461 72.527,70.386 L70.923,62.971 C70.691,61.896 70.419,61.033 70.321,61.054 C70.222,61.074 70.771,60.448 71.542,59.663 C71.542,59.663 76.71,54.394 78.493,50.3" id="Path" stroke="#000000" stroke-width="3" stroke-linecap="round" stroke-linejoin="round"></path>
                            <path d="M64.831,16.494 C62.152,15.011 60.405,15.008 57.273,14.153" id="Path" stroke="#000000" stroke-width="3" stroke-linecap="round" stroke-linejoin="round"></path>
                            <path d="M56.515,20.503 C49.069,16.996 39.173,17.163 32.033,21.169" id="Path" stroke="#000000" stroke-width="3" stroke-linecap="round" stroke-linejoin="round"></path>
                            <path d="M78.531,30.96 C77.146,27.75 74.593,23.585 72,21" id="Path" stroke="#000000" stroke-width="3" stroke-linecap="round" stroke-linejoin="round"></path>
                            <path d="M78.217,49.579 L84.459,49.579 C86.109,49.579 87.459,48.229 87.459,46.579 L87.459,34.939 C87.459,33.289 86.109,31.939 84.459,31.939 L78.901,31.939" id="Path" stroke="#000000" stroke-width="3" stroke-linecap="round"></path>
                            <circle id="Oval" fill="#000000" fill-rule="nonzero" cx="65.402" cy="30.918" r="2.674"></circle>
                            <polyline id="Path" stroke="#000000" stroke-width="3" stroke-linecap="round" stroke-linejoin="round" points="65.521 17.02 68.849 15.203 72.176 13.387 72.085 17.177 71.994 20.965"></polyline>
                            <path d="M8.66,45.338 C8.66,45.338 9.098,48.154 5.818,49.579 C2.538,51.004 0.75,47.458 0.75,47.458" id="Path" stroke="#000000" stroke-width="2"></path>
                            <path d="M36.948,19.699 C34.873,17.625 33.588,14.759 33.588,11.594 C33.588,5.262 38.721,0.131 45.052,0.131 C51.382,0.131 56.515,5.262 56.515,11.594 C56.515,14.841 55.165,17.771 52.996,19.857" id="Path" stroke="#000000" stroke-width="3"></path>
                        </g>
                    </g>
                </g>
            </g>
        </g>
    </g>
</svg>