<?xml version="1.0" encoding="UTF-8"?>
<svg width="99px" height="81px" viewBox="0 0 99 81" version="1.1" xmlns="http://www.w3.org/2000/svg" xmlns:xlink="http://www.w3.org/1999/xlink">
    <!-- Generator: Sketch 57.1 (83088) - https://sketch.com -->
    <title>placebet</title>
    <desc>Created with Sketch.</desc>
    <g id="Website" stroke="none" stroke-width="1" fill="none" fill-rule="evenodd">
        <g id="Desktop-HD-Copy-13" transform="translate(-242.000000, -933.000000)" fill="#2D2828" fill-rule="nonzero">
            <g id="Group-10" transform="translate(107.000000, 863.000000)">
                <g id="Group-5" transform="translate(43.000000, 70.000000)">
                    <g id="Group-3">
                        <g id="placebet" transform="translate(92.000000, 0.000000)">
                            <g id="noun_Sign-Up_52477">
                                <path d="M65.6908387,81 L1.86210251,81 C0.827601117,81 0,80.1755725 0,79.1450382 L0,1.85496183 C0,0.824427481 0.827601117,0 1.86210251,0 L65.6908387,0 C66.7253401,0 67.5529412,0.824427481 67.5529412,1.85496183 L67.5529412,40.5 C67.5529412,41.5305344 66.7253401,42.3549618 65.6908387,42.3549618 C64.6563373,42.3549618 63.8287361,41.5305344 63.8287361,40.5 L63.8287361,3.8129771 L3.82765517,3.8129771 L3.82765517,77.2900763 L63.8287361,77.2900763 L63.8287361,71.4160305 C63.8287361,70.3854962 64.6563373,69.5610687 65.6908387,69.5610687 C66.7253401,69.5610687 67.5529412,70.3854962 67.5529412,71.4160305 L67.5529412,79.1450382 C67.5529412,80.1755725 66.7253401,81 65.6908387,81 Z" id="Path"></path>
                                <path d="M59.0163373,65.9571429 C58.4943574,65.9571429 58.0767734,65.7520615 57.6591895,65.4444396 C57.0328136,64.8291956 56.9284176,64.0088703 57.2416055,63.2910857 L61.417445,55.3954549 C61.521841,55.1903736 61.626237,55.087833 61.730633,54.8827516 L91.9010729,24.8383385 C92.6318448,24.1205538 93.7802007,24.1205538 94.6153686,24.8383385 L98.3736241,28.4272615 C98.791208,28.7348835 99,29.2475868 99,29.7602901 C99,30.2729934 98.791208,30.7856967 98.4780201,31.0933187 L68.2031841,61.1377319 C68.0987881,61.2402725 67.8899961,61.3428132 67.7856001,61.4453538 L59.8515052,65.7520615 C59.6427132,65.9571429 59.3295253,65.9571429 59.0163373,65.9571429 Z M64.6537206,57.3437275 L63.5053647,59.4970813 L65.6976804,58.2665934 L94.3021806,29.7602901 L93.2582208,28.7348835 L64.6537206,57.3437275 Z" id="Shape"></path>
                                <path d="M56.8037284,21.9857143 L11.9139186,21.9857143 C11.0958811,21.9857143 10.4823529,21.3670438 10.4823529,20.5421499 L10.4823529,13.0149929 C10.4823529,12.190099 11.0958811,11.5714286 11.9139186,11.5714286 L56.8037284,11.5714286 C57.621766,11.5714286 58.2352941,12.190099 58.2352941,13.0149929 L58.2352941,20.5421499 C58.2352941,21.3670438 57.621766,21.9857143 56.8037284,21.9857143 Z M13.3454843,19.2016973 L55.3721627,19.2016973 L55.3721627,14.4585573 L13.3454843,14.4585573 L13.3454843,19.2016973 Z" id="Shape"></path>
                                <path d="M56.8037284,38.1857143 L11.9139186,38.1857143 C11.0958811,38.1857143 10.4823529,37.5670438 10.4823529,36.7421499 L10.4823529,29.2149929 C10.4823529,28.390099 11.0958811,27.7714286 11.9139186,27.7714286 L56.8037284,27.7714286 C57.621766,27.7714286 58.2352941,28.390099 58.2352941,29.2149929 L58.2352941,36.7421499 C58.2352941,37.5670438 57.621766,38.1857143 56.8037284,38.1857143 Z M13.3454843,35.4016973 L55.3721627,35.4016973 L55.3721627,30.6585573 L13.3454843,30.6585573 L13.3454843,35.4016973 Z" id="Shape"></path>
                                <path d="M56.8037284,54.3857143 L11.9139186,54.3857143 C11.0958811,54.3857143 10.4823529,53.7670438 10.4823529,52.9421499 L10.4823529,45.4149929 C10.4823529,44.590099 11.0958811,43.9714286 11.9139186,43.9714286 L56.8037284,43.9714286 C57.621766,43.9714286 58.2352941,44.590099 58.2352941,45.4149929 L58.2352941,52.9421499 C58.2352941,53.7670438 57.5195113,54.3857143 56.8037284,54.3857143 Z M13.3454843,51.6016973 L55.3721627,51.6016973 L55.3721627,46.8585573 L13.3454843,46.8585573 L13.3454843,51.6016973 Z" id="Shape"></path>
                                <path d="M21.8117647,72.9 L13.1294118,72.9 C12.2823529,72.9 11.6470588,72.2688312 11.6470588,71.4272727 L11.6470588,62.8012987 C11.6470588,61.9597403 12.2823529,61.3285714 13.1294118,61.3285714 L21.8117647,61.3285714 C22.6588235,61.3285714 23.2941176,61.9597403 23.2941176,62.8012987 L23.2941176,71.4272727 C23.1882353,72.2688312 22.5529412,72.9 21.8117647,72.9 Z M14.5058824,70.0597403 L20.3294118,70.0597403 L20.3294118,64.274026 L14.5058824,64.274026 L14.5058824,70.0597403 Z" id="Shape"></path>
                                <path d="M38.1176471,72.9 L29.4352941,72.9 C28.5882353,72.9 27.9529412,72.2688312 27.9529412,71.4272727 L27.9529412,62.8012987 C27.9529412,61.9597403 28.5882353,61.3285714 29.4352941,61.3285714 L38.1176471,61.3285714 C38.9647059,61.3285714 39.6,61.9597403 39.6,62.8012987 L39.6,71.4272727 C39.6,72.2688312 38.8588235,72.9 38.1176471,72.9 Z M30.8117647,70.0597403 L36.6352941,70.0597403 L36.6352941,64.274026 L30.8117647,64.274026 L30.8117647,70.0597403 Z" id="Shape"></path>
                                <path d="M53.3076923,72.9 L46.8570136,72.9 C46.0378798,72.9 45.4235294,72.2688312 45.4235294,71.4272727 L45.4235294,62.8012987 C45.4235294,61.9597403 46.0378798,61.3285714 46.8570136,61.3285714 L53.2053006,61.3285714 C54.0244344,61.3285714 54.6387847,61.9597403 54.6387847,62.8012987 C54.6387847,63.6428571 54.0244344,64.274026 53.2053006,64.274026 L48.188106,64.274026 L48.188106,70.0597403 L53.3076923,70.0597403 C54.1268261,70.0597403 54.7411765,70.6909091 54.7411765,71.5324675 C54.7411765,72.374026 54.0244344,72.9 53.3076923,72.9 Z" id="Path"></path>
                            </g>
                        </g>
                    </g>
                </g>
            </g>
        </g>
    </g>
</svg>