<?xml version="1.0" encoding="UTF-8"?>
<svg width="179px" height="179px" viewBox="0 0 179 179" version="1.1" xmlns="http://www.w3.org/2000/svg" xmlns:xlink="http://www.w3.org/1999/xlink">
    <!-- Generator: Sketch 57.1 (83088) - https://sketch.com -->
    <title>Group 19</title>
    <desc>Created with Sketch.</desc>
    <g id="Website" stroke="none" stroke-width="1" fill="none" fill-rule="evenodd">
        <g id="Desktop-HD-Copy-5" transform="translate(-801.000000, -785.000000)">
            <g id="Group-5" transform="translate(72.000000, 785.000000)">
                <g id="Group-4" transform="translate(698.000000, 0.000000)">
                    <g id="Group-19" transform="translate(31.000000, 0.000000)">
                        <rect id="Rectangle" fill="#FFFFFF" x="0" y="0" width="179" height="179"></rect>
                        <g id="noun_sell_2322341" transform="translate(53.000000, 40.000000)" fill="#61BB87" fill-rule="nonzero">
                            <path d="M13.3822222,73.2577778 L36.9511111,63.1855556 C37.3955556,63.0066667 37.8544444,62.9222222 38.3055556,62.9222222 C39.81,62.9222222 41.23,63.8644444 41.7422222,65.4 C42.3577778,67.24 41.3255556,69.2322222 39.5277778,69.9577778 L29.0711111,74.1722222 L30.2277778,77.0477778 L40.2,73.0355556 C47.9677778,69.5511111 54.1144444,63.0944444 56.6066667,54.5055556 C57.0366667,53.0255556 58.4033333,52.0244444 59.9333333,52.0244444 C59.9788889,52.0244444 60.0233333,52.0255556 60.0688889,52.0266667 C62.1233333,52.1055556 63.6655556,53.9444444 63.38,55.98 C59.7,82.22 35.9666667,88.1233333 23.6611111,91.39 L20.5933333,100 L0.64,100 L5.72111111,81.9777778 C6.82444444,78.0622222 9.64111111,74.8555556 13.3822222,73.2577778 Z M45.0433333,20.7144444 L46.8755556,12.2188889 C44.31,9.92555556 42.2311111,7.40333333 40.6577778,4.68666667 L39.79,9.45777778 C38.5822222,16.1033333 40.9655556,22.8511111 45.97,27.3877778 C51.1788889,32.11 54.4511111,38.93 54.4511111,46.5144444 C54.4511111,54.5388889 50.7855556,61.7044444 45.04,66.4366667 C45.0333333,65.7622222 44.9244444,65.0788889 44.7,64.41 C43.78,61.6555556 41.21,59.8033333 38.3055556,59.8033333 C37.44,59.8033333 36.5922222,59.9677778 35.7855556,60.2933333 L35.7555556,60.3055556 L35.7255556,60.3188889 L15.7588889,68.8511111 C8.37222222,64.5633333 3.26777778,56.7211111 2.86,47.7166667 C2.49111111,39.5777778 5.89333333,32.2222222 11.4666667,27.25 C16.43,22.8222222 18.7044444,16.1133333 17.5144444,9.56888889 L15.7633333,0 L41.4622222,0 C42.9511111,3.72888889 45.46,7.32888889 48.8555556,10.3255556 L57.2422222,8.51666667 L72.6944444,23.9688889 L60.4955556,36.1666667 L45.0433333,20.7144444 Z M49.5044444,12.9766667 L48.0244444,19.8355556 L60.4955556,32.3066667 L68.8333333,23.9688889 L56.3633333,11.4977778 L49.5044444,12.9766667 Z M52.4433333,17.1544444 C53.3044444,17.1544444 54.0033333,16.4566667 54.0033333,15.5944444 C54.0033333,14.7322222 53.3055556,14.0344444 52.4433333,14.0344444 C51.5822222,14.0344444 50.8833333,14.7322222 50.8833333,15.5944444 C50.8833333,16.4566667 51.5822222,17.1544444 52.4433333,17.1544444 Z" id="Shape"></path>
                        </g>
                    </g>
                </g>
            </g>
        </g>
    </g>
</svg>