<?xml version="1.0" encoding="UTF-8"?>
<svg width="104px" height="84px" viewBox="0 0 104 84" version="1.1" xmlns="http://www.w3.org/2000/svg" xmlns:xlink="http://www.w3.org/1999/xlink">
    <!-- Generator: Sketch 57.1 (83088) - https://sketch.com -->
    <title>stockprofits</title>
    <desc>Created with Sketch.</desc>
    <g id="Website" stroke="none" stroke-width="1" fill="none" fill-rule="evenodd">
        <g id="Desktop-HD-Copy-13" transform="translate(-1054.000000, -2277.000000)" fill="#000000" fill-rule="nonzero">
            <g id="Group-10" transform="translate(921.000000, 2210.000000)">
                <g id="Group-5" transform="translate(19.000000, 67.000000)">
                    <g id="Group-3">
                        <g id="stockprofits" transform="translate(114.000000, 0.000000)">
                            <g id="noun_profits_2928060">
                                <path d="M53.4444015,45.973294 C53.7918408,45.9873497 54.1522015,46 54.4996408,46 C54.9789851,46 55.4565348,45.9838358 55.9314823,45.9522103 C57.3563247,45.8566308 58.7575678,45.618385 60.1132275,45.2409868 C62.1590999,44.6731323 64.0531469,43.7964018 65.7668343,42.6884532 C65.8883304,42.6100921 66.0167358,42.5405159 66.1363476,42.4593436 C66.2769565,42.3641156 66.4072462,42.2569401 66.5451632,42.1585495 C70.8374573,39.0950875 73.8258666,34.4770539 74.7197693,29.2813269 C74.7654425,29.0163751 74.7886829,28.7454494 74.8233192,28.477335 C74.9288431,27.6613958 75,26.837023 75,26 C75,14.9718181 65.8036243,6 54.4996411,6 C45.4597567,6 37.5906856,11.6532434 34.9188479,20.0698573 C34.3093933,21.9955021 34,23.9900203 34,26 C34,26.2150538 34.0014358,26.4132406 34.0136391,26.5650432 C34.3079574,36.9115186 42.835297,45.4377679 53.4444015,45.973294 Z M37.7270767,20.9230444 C40.0141467,13.7194461 46.7547577,8.87862801 54.4996408,8.87862801 C64.182001,8.87862801 72.0596863,16.558718 72.0596863,25.9999999 C72.0596863,27.9038582 71.7319878,29.7550072 71.1231613,31.4937098 C69.2965024,36.7091151 64.9393327,40.9096913 59.3077998,42.4719936 C57.7622689,42.9035068 56.1449529,43.1213717 54.4996408,43.1213717 C54.1909654,43.1213717 53.8693686,43.1087214 53.5786394,43.0974768 C44.5078874,42.6392576 37.2051999,35.3414855 36.9496452,26.4230795 C36.9388775,26.2783048 36.9402495,26.1447746 36.9402495,25.9999999 C36.9402495,24.2795697 37.2051998,22.5717899 37.7270767,20.9230444 Z" id="Shape"></path>
                                <path d="M59.6050749,51.8230506 C72.0488399,49.3762625 81,38.7415682 81,26.1817837 C81,11.7456985 69.0364704,0 54.3317702,0 C41.8545805,0 31.0855823,8.52141649 28.362185,20.3605118 C18.5957478,23.2467531 11.5736646,31.6218014 10.5723415,41.5971417 C3.94339495,45.8940936 0,53.0427855 0,60.8766199 C0,73.6273746 10.5593429,84 23.5386973,84 C34.2912485,84 43.7606666,76.6718327 46.3553172,66.485304 C52.6772525,63.5840775 57.4369858,58.3106463 59.6050749,51.8230506 Z M54.33177,2.85487678 C67.4391637,2.85487678 78.1024941,13.3195052 78.1024941,26.1817838 C78.1024941,37.6291701 69.7622615,47.3034102 58.2656151,49.1880748 C57.5393818,49.3096999 56.79228,49.3856718 56.0383698,49.4386432 C55.7661097,49.4578104 55.4959717,49.4846447 55.2216778,49.4944025 C54.1893176,49.5313431 53.1422788,49.5024179 52.0978044,49.4013542 C51.3704215,49.3358371 50.653119,49.2386067 49.9474887,49.1114058 C39.3628563,47.2058315 31.3833087,38.5519867 30.6332006,27.7820761 C30.5850975,27.2523626 30.5610459,26.7226492 30.5610459,26.1817838 C30.5610459,24.6762825 30.7081849,23.1902969 31.001048,21.7544947 C33.1331482,10.8033662 42.9447704,2.85487678 54.33177,2.85487678 Z M49.2843907,52.7061386 C49.0059409,53.1288639 48.7117513,53.5400887 48.3946599,53.9338889 C48.2420385,54.1234705 48.084377,54.3092188 47.9230901,54.4918304 C47.5922042,54.8664633 47.2409807,55.2233229 46.8751671,55.5669395 C46.7152066,55.7167927 46.5616125,55.8729188 46.3952854,56.0168474 C45.8550979,56.4841801 45.2906821,56.9278151 44.6863867,57.3247517 C43.1194981,58.3465411 41.4146669,59.0825639 39.6072628,59.5174866 C38.3410188,59.8353147 37.0160607,59.9956226 35.6698807,59.9956226 C27.2334418,59.9956226 20.2804183,53.7840355 19.4973279,45.5455975 C19.4499322,45.0577036 19.4258806,44.5558698 19.4258806,44.0568239 C19.4258806,42.7409042 19.5942415,41.4138327 19.9238894,40.1188227 C20.0752728,39.5371834 20.2654746,38.9698324 20.4810544,38.4143303 C20.5509101,38.234158 20.637478,38.0623497 20.7138771,37.8856624 C20.8732188,37.5159084 21.0375121,37.1489425 21.2242653,36.7938253 C21.3300214,36.5927434 21.448334,36.3989798 21.5624905,36.2027767 C21.7473868,35.8849485 21.938473,35.5713025 22.1448565,35.2670657 C22.2782012,35.0708626 22.4184431,34.8795385 22.5603649,34.6892598 C22.7754142,34.4010539 22.9998364,34.1205149 23.2338971,33.8469457 C23.3890827,33.665728 23.5457716,33.4859042 23.7089155,33.3116564 C23.9595115,33.0440117 24.2231945,32.7885643 24.492006,32.5376475 C24.6596596,32.3815214 24.8239529,32.2219104 24.9983267,32.0727543 C25.3030387,31.811731 25.6241094,31.5688296 25.9487172,31.3304585 C26.1063787,31.2144095 26.2567894,31.0899965 26.4189606,30.9795234 C26.9157315,30.6411341 27.4296567,30.324003 27.9657767,30.0396304 C27.9750613,30.1023597 27.9910663,30.1623009 28.0007929,30.2243331 C28.0425294,30.4930233 28.1020394,30.7543951 28.151911,31.0202973 C28.2405127,31.4921604 28.3317671,31.9629781 28.4453931,32.4254319 C28.5164868,32.7150318 28.6009324,32.9983588 28.6815759,33.2837768 C28.802718,33.7124265 28.9285466,34.1386368 29.0706453,34.5575285 C29.1689738,34.8478254 29.2757025,35.1328949 29.3838461,35.4179644 C29.5365558,35.8208254 29.6972238,36.2188075 29.8692102,36.611562 C29.9926514,36.8938435 30.119541,37.1729885 30.252532,37.4496941 C30.4376936,37.8347819 30.6340852,38.2118541 30.8374625,38.5861386 C30.9819486,38.8520408 31.1253739,39.117943 31.278791,39.3779208 C31.5002068,39.7535991 31.7365665,40.1181256 31.9762863,40.4812581 C32.135451,40.7224171 32.2890449,40.9667126 32.4559911,41.2022957 C32.727367,41.584944 33.0169583,41.9529554 33.3084067,42.3199214 C33.4656261,42.5182154 33.6139146,42.7231309 33.7767932,42.9165461 C34.2024704,43.4222133 34.6483086,43.9101072 35.1113011,44.3819704 C35.1974269,44.4697912 35.2847908,44.5558698 35.3721545,44.6426452 C35.8330248,45.0995231 36.3090159,45.541067 36.8034877,45.9634439 C37.0088987,46.1387371 37.2268659,46.2990452 37.4378476,46.4684142 C37.7901323,46.7506956 38.1423285,47.0329771 38.5097338,47.2978339 C38.7602414,47.4783546 39.0204758,47.6452841 39.2777036,47.8170924 C39.6238869,48.048842 39.9709545,48.2781521 40.3288983,48.493871 C40.6076134,48.6614974 40.8927836,48.8190175 41.1783075,48.9768861 C41.5330679,49.1730892 41.8905697,49.3637163 42.2554991,49.544237 C42.5541099,49.6919991 42.8560808,49.8331399 43.161235,49.9700986 C43.5316467,50.1363311 43.9069218,50.2928056 44.2866181,50.4426588 C44.5983157,50.5656777 44.9102787,50.6866057 45.2279892,50.7984729 C45.6211261,50.9368257 46.0208064,51.0605417 46.4226091,51.1814696 C46.7393469,51.2766089 47.0538741,51.3745362 47.3757405,51.4585237 C47.808315,51.5714363 48.2492013,51.6634392 48.6906182,51.755442 C48.992147,51.8185198 49.2894314,51.8903098 49.5948508,51.9432812 C49.6441919,51.9516451 49.691676,51.9652364 49.7411055,51.9732518 C49.7020217,52.0405114 49.6733721,52.114044 49.6333155,52.1802582 C49.5243758,52.3607795 49.4002272,52.5301483 49.2843907,52.7061386 Z M22.7386292,65.2871758 C23.2756334,65.6039584 23.8251055,65.8984373 24.3857191,66.1761883 C24.4309926,66.198492 24.4757356,66.2218412 24.5210975,66.2437964 C25.0509393,66.5020317 25.5900656,66.7407512 26.1386534,66.962743 C26.2260172,66.9982895 26.3132041,67.0334876 26.40101,67.0679888 C26.9144047,67.2690707 27.4342545,67.4537735 27.9621509,67.6220969 C28.100801,67.6663559 28.2400702,67.7085239 28.3796931,67.7503434 C28.865676,67.8960146 29.3552845,68.029837 29.8518785,68.1469314 C30.052426,68.1943268 30.2547422,68.2357979 30.4568813,68.2786629 C30.903869,68.3727567 31.3518293,68.4598806 31.8060678,68.5299283 C32.0793891,68.5727932 32.355363,68.6034609 32.6309833,68.6372649 C33.0263309,68.6850089 33.4210594,68.7327527 33.8208283,68.7616779 C34.1785952,68.7888606 34.5394571,68.7972244 34.9001421,68.8083762 C35.1574584,68.8163916 35.4111494,68.8418318 35.6698804,68.8418318 C35.7623729,68.8418318 35.8526547,68.8341649 35.9449702,68.8331194 C36.0063371,68.8324224 36.0666428,68.8383469 36.1280981,68.8376498 C36.0995368,68.8808633 36.0692071,68.9233798 36.0402922,68.9665932 C35.7294788,69.429744 35.3997425,69.8779094 35.0415334,70.2995892 C35.0333984,70.3089986 35.0261475,70.3194534 35.0180123,70.3292114 C34.6567084,70.7522851 34.2662242,71.1474793 33.8614152,71.5255971 C33.793505,71.5893718 33.7272748,71.6545405 33.6582149,71.7165728 C33.2637517,72.0716899 32.849658,72.4038063 32.4199132,72.7146645 C32.335998,72.7753028 32.2505797,72.8338501 32.165515,72.8927459 C31.722418,73.1994222 31.2661457,73.4876279 30.7914811,73.7455148 C30.7390452,73.7740914 30.6843102,73.7984862 30.6314321,73.8263658 C30.1672901,74.0713583 29.6893536,74.291956 29.1997453,74.488159 C29.1374057,74.5132507 29.0768347,74.5418274 29.0141415,74.5658736 C28.5089703,74.7606827 27.9895626,74.9230816 27.4621968,75.063177 C27.3598009,75.0907081 27.2573164,75.1178908 27.1541246,75.1433309 C26.6284388,75.2712288 26.0940873,75.3740351 25.5513357,75.4458252 C25.4593738,75.4580225 25.3662624,75.4656895 25.27377,75.4764929 C24.701838,75.5413131 24.1241584,75.5845266 23.5386975,75.5845266 C15.2805231,75.5845266 8.56235611,68.9868063 8.56235611,60.8766202 C8.56235611,60.4085905 8.5917132,59.9436972 8.63707511,59.4812435 C8.65113467,59.3373147 8.67394833,59.19478 8.69242906,59.0515483 C8.7339887,58.7291897 8.7841257,58.4082252 8.84726104,58.0903972 C8.878475,57.9328771 8.91216488,57.7764026 8.94859595,57.6202766 C9.02260752,57.302797 9.10908705,56.9888024 9.20414378,56.6775957 C9.24534979,56.5430764 9.28231139,56.4068145 9.32731965,56.2736892 C9.62310081,55.3975711 10.0020013,54.5507265 10.4590695,53.7436106 C10.5271567,53.6233796 10.6024062,53.506982 10.6739418,53.3888419 C10.8453092,53.1051664 11.0248117,52.8263699 11.2156326,52.5538463 C11.3052953,52.4262969 11.3969919,52.2994444 11.4908991,52.1743346 C11.5631422,52.0778012 11.6436973,51.9871924 11.7184163,51.8924015 C11.8160373,52.1792134 11.936472,52.4548736 12.0444387,52.7364581 C12.1515213,53.0163001 12.2509992,53.2996272 12.3679852,53.5742418 C12.5122061,53.9122826 12.6757037,54.2388231 12.8346032,54.5685 C12.9756409,54.8622817 13.1081012,55.1602457 13.2603689,55.4470575 C13.3858438,55.6826407 13.5282078,55.9074204 13.6611103,56.138473 C15.8286689,59.9158176 18.9657176,63.0568039 22.7117483,65.2711454 C22.7207674,65.2763725 22.7296098,65.2819484 22.7386292,65.2871758 Z M23.5386973,81.1451234 C12.157357,81.1451234 2.89750576,72.052174 2.89750576,60.8766199 C2.89750576,54.7138223 5.67758329,49.0291607 10.4504035,45.2040721 C10.4712717,45.6550255 10.5137157,46.1000544 10.5589007,46.5443864 C10.567301,46.6273284 10.5697769,46.7116643 10.5790616,46.7942578 C10.6449381,47.3814731 10.7291186,47.9627638 10.8373506,48.5356907 C10.7101072,48.6618461 10.5994877,48.8012445 10.4765772,48.9308849 C10.2854911,49.1326638 10.0969693,49.3351398 9.91631723,49.5449343 C9.70701562,49.7874873 9.50920913,50.0377071 9.31414397,50.290715 C9.14790523,50.5060853 8.98210864,50.7207586 8.82648086,50.9434474 C8.6406118,51.2090012 8.46906758,51.4822217 8.29867294,51.7568363 C8.15896174,51.982313 8.01695136,52.2053503 7.88776259,52.4367514 C7.72674095,52.7246089 7.5828737,53.0201332 7.4385643,53.3160061 C7.32573412,53.5477557 7.20795225,53.7763689 7.10555628,54.0123005 C6.97062001,54.3235071 6.85610972,54.6416837 6.73947743,54.9598603 C6.65432423,55.1923069 6.5613014,55.4212686 6.48614024,55.6572002 C6.37790826,55.9969834 6.29372775,56.3430397 6.20654079,56.6890959 C6.15030252,56.9121331 6.08301128,57.1320339 6.03570399,57.3578592 C5.95461845,57.7439924 5.9016519,58.13605 5.84718213,58.5277592 C5.82047785,58.7201288 5.78006764,58.909362 5.75981842,59.102777 C5.69853994,59.6899923 5.66485006,60.2817379 5.66485006,60.8766201 C5.66485006,70.5606127 13.6832163,78.439403 23.5386972,78.439403 C23.9777267,78.439403 24.4138379,78.4226752 24.8468545,78.3920077 C24.9930208,78.3815528 25.1365344,78.3599461 25.2819933,78.3460062 C25.5676056,78.3188235 25.8535716,78.2930348 26.1358237,78.2526093 C26.3042731,78.2282147 26.4694507,78.1930166 26.6365737,78.1644399 C26.8922985,78.1201809 27.148819,78.0790584 27.4012719,78.0239961 C27.5764414,77.9863585 27.7478973,77.9379177 27.9213869,77.8947041 C28.1610183,77.8354599 28.401357,77.7783065 28.6375398,77.7093045 C28.81492,77.6573785 28.9884096,77.5963918 29.1636677,77.5392386 C29.3907428,77.4653575 29.6184367,77.3932189 29.8418863,77.3106254 C30.0170559,77.2458051 30.1882465,77.1726211 30.3610286,77.1025734 C30.5788191,77.0140555 30.7969632,76.9269315 31.0106861,76.8303983 C31.182584,76.7526837 31.3502375,76.6676508 31.5193944,76.5847089 C31.7268391,76.4829481 31.9344606,76.3818845 32.1374841,76.2724568 C32.3046955,76.1821964 32.4676625,76.085663 32.631779,75.9901753 C32.8302928,75.8751717 33.0284529,75.7594711 33.2221917,75.6368006 C33.3825059,75.5353884 33.5386642,75.4284002 33.69553,75.322109 C33.8850244,75.1935141 34.0734579,75.0642221 34.2578237,74.9286573 C34.4104451,74.8160933 34.5591756,74.6993472 34.7081716,74.5819042 C34.888293,74.4404149 35.0669997,74.2971832 35.2415504,74.148724 C35.3859482,74.0257051 35.5267206,73.8992011 35.6672276,73.7716516 C35.8370917,73.617268 36.0047453,73.461142 36.168685,73.3001369 C36.3037098,73.1677086 36.4354629,73.0324922 36.5662432,72.8955334 C36.7256733,72.7289525 36.8820969,72.5595835 37.0351602,72.3860327 C37.1606351,72.244195 37.2834572,72.0999177 37.4045108,71.9535496 C37.5521803,71.7747713 37.6963128,71.5935535 37.8371736,71.4085024 C37.9522143,71.2576037 38.0651328,71.1056596 38.1754871,70.950579 C38.3108655,70.7606489 38.4414691,70.5672337 38.5695967,70.3713792 C38.6743802,70.2110712 38.7777489,70.0500661 38.8775804,69.8859247 C38.9988993,69.6865852 39.1144706,69.4834122 39.228185,69.2784968 C39.322269,69.1087793 39.4154689,68.9390619 39.5042474,68.7658596 C39.5445691,68.6867511 39.5906385,68.6118244 39.6298992,68.5323675 C39.7928663,68.5076243 39.953711,68.4696383 40.1161475,68.4417585 C40.3844286,68.3957571 40.6520021,68.3469676 40.9188683,68.2922539 C41.2262331,68.2288277 41.5316525,68.1573861 41.8368068,68.0824595 C42.0943,68.0190332 42.3512626,67.9552586 42.6069873,67.8834684 C42.7174299,67.8528008 42.8297296,67.8301486 42.9398184,67.7977385 C40.0133095,75.6695592 32.2488995,81.1451234 23.5386973,81.1451234 Z M44.5498585,64.1873235 C44.061046,64.3950269 43.5667509,64.5849571 43.0674157,64.7567654 C43.0587502,64.7595534 43.0498192,64.7616444 43.0411536,64.7647808 C41.5511947,65.2753269 40.0171119,65.6259136 38.4542025,65.8099193 C37.5543911,65.9270139 36.6177951,65.986955 35.6698806,65.986955 C34.3632264,65.986955 33.0763795,65.8733455 31.8205697,65.6551871 C23.0299008,64.1284275 15.7578404,57.4725139 13.8303554,48.7085445 C13.4929261,47.218377 13.3217356,45.6543284 13.3217356,44.0568241 C13.3217356,43.5438384 13.3457872,43.0308528 13.3825719,42.5192612 C13.3825719,42.5192612 13.3825719,42.5189127 13.3825719,42.5185641 C13.3825719,42.5185641 13.3825719,42.5182157 13.3825719,42.5178671 C13.9895201,33.89469 19.6826662,26.5163394 27.8007756,23.5360042 C27.7987418,23.5551714 27.7997145,23.5750358 27.7977692,23.594203 C27.7106707,24.447669 27.6635402,25.3119382 27.6635402,26.1817834 C27.6635402,26.4536101 27.668492,26.7240427 27.679103,26.9916874 C27.4769637,27.0829932 27.2904757,27.1993908 27.0923156,27.297318 C26.7960039,27.4440347 26.5032292,27.5931909 26.2162905,27.7538474 C25.8605574,27.9531868 25.516673,28.1668147 25.1759721,28.387064 C24.9025624,28.5637513 24.6303907,28.7397416 24.3671499,28.9293232 C24.0379441,29.1669973 23.7241242,29.4196567 23.4117192,29.676498 C23.163157,29.8807165 22.9131799,30.08145 22.6756707,30.2971689 C22.3748494,30.570738 22.0931278,30.8610348 21.810964,31.1527257 C21.5907862,31.3799449 21.3661871,31.6015881 21.157858,31.8392622 C20.8856863,32.1501203 20.637124,32.4780548 20.3860859,32.8056408 C20.1988905,33.0495877 20.003383,33.2862163 19.8283018,33.5392242 C19.5835418,33.8925988 19.3676968,34.2640952 19.1476073,34.6338491 C18.9993188,34.8830234 18.8382088,35.1234856 18.7015039,35.3796298 C18.4769047,35.800264 18.2874103,36.2393686 18.0953514,36.6777762 C17.9971999,36.9015104 17.8818054,37.1161837 17.7924079,37.3444484 C17.5281945,38.0191361 17.2995277,38.7098545 17.1155157,39.4176492 C16.7257389,40.9454543 16.5283747,42.506715 16.5283747,44.0568238 C16.5283747,44.6478725 16.5566707,45.2389211 16.6125552,45.814636 C17.5364181,55.5265136 25.7288044,62.8504935 35.6698807,62.8504935 C37.255869,62.8504935 38.8206353,62.6609118 40.3075877,62.2887184 C42.4276621,61.7785262 44.4387971,60.9086809 46.2893526,59.702886 C46.9471451,59.2707513 47.5665613,58.7940091 48.1599805,58.2914785 C48.2262991,58.2350222 48.2955358,58.1827478 48.3609701,58.1255946 C48.9179583,57.6404885 49.4389576,57.12123 49.9328989,56.5782737 C50.0130119,56.4901043 50.0939205,56.4036773 50.1723534,56.314114 C50.6479023,55.7711577 51.090115,55.2017157 51.4998758,54.6082276 C51.5688472,54.5082092 51.6353427,54.407494 51.7023687,54.3060818 C52.1054977,53.6976084 52.4773242,53.0682252 52.8082984,52.4134018 C52.8241265,52.3823857 52.8454369,52.354506 52.8610881,52.3231415 C53.2503344,52.3450968 53.6389616,52.3454452 54.0276772,52.3503242 C54.129189,52.3513696 54.2305238,52.364961 54.3317703,52.364961 C54.3717384,52.364961 54.4109106,52.360082 54.4508787,52.360082 C55.0991212,52.3579911 55.7450648,52.3374299 56.3839346,52.2882919 C54.2072678,57.6063365 49.9897558,61.8761055 44.5498585,64.1873235 Z" id="Shape"></path>
                                <path d="M50.8185102,29.8741373 C50.8185102,29.0796584 50.1875107,28.4367762 49.4092551,28.4367762 C48.6309995,28.4367762 48,29.0796584 48,29.8741373 C48,32.6365657 50.1910373,34.9157797 53.0438672,35.343198 L53.0438672,36.5626389 C53.0438672,37.3571178 53.6748667,38 54.4531223,38 C55.2313779,38 55.8623774,37.3571178 55.8623774,36.5626389 L55.8623774,35.1308924 C58.2558919,34.4002806 60,32.3333722 60,29.8741372 C60,27.4149022 58.2558919,25.3472919 55.8623774,24.6159784 L55.8623774,20.0245642 C56.493807,20.4716341 56.9041802,21.1313603 56.9041802,21.8774125 C56.9041802,22.6718914 57.5351797,23.3147736 58.3134353,23.3147736 C59.091691,23.3147736 59.7226904,22.6718914 59.7226904,21.8774125 C59.7226904,19.557843 58.1010665,17.6018247 55.8623774,16.8803368 L55.8623774,15.4373611 C55.8623774,14.6428822 55.2313779,14 54.4531223,14 C53.6748667,14 53.0438672,14.6428822 53.0438672,15.4373611 L53.0438672,16.6571529 C50.3444865,17.0821149 48.2773096,19.2532459 48.2773096,21.8774125 C48.2773096,24.5029828 50.3444865,26.673763 53.0438672,27.0990759 L53.0438672,32.4203999 C51.7586443,32.0757984 50.8185102,31.0707686 50.8185102,29.8741373 Z M57.1814897,29.8741373 C57.1814897,30.7654697 56.6579218,31.5515265 55.8623773,32.0396538 L55.8623773,27.7072173 C56.6579218,28.1956954 57.1814897,28.9821033 57.1814897,29.8741373 Z M51.0958196,21.8774126 C51.0958196,20.8165868 51.9134697,19.9217453 53.0438671,19.588373 L53.0438671,24.167505 C51.9134697,23.8341327 51.0958196,22.9382385 51.0958196,21.8774126 Z" id="Shape"></path>
                                <path d="M1.30710985,12.0365835 C3.90912681,13.2320322 6.77314003,16.0939075 7.97042671,18.6950885 L7.97042671,18.6965288 C8.34152816,19.500216 9.11890318,20 10.0003589,20 L10.0010767,20 C10.8825325,20 11.6599075,19.500216 12.0295733,18.6950886 C13.22686,16.0939075 16.091591,13.2320322 18.693608,12.0365837 C19.4996948,11.6664266 20,10.8857843 20,10.0014404 C20,9.11565616 19.499695,8.33501375 18.693608,7.9648567 C16.091591,6.76796779 13.22686,3.90465213 12.0302911,1.30491139 C11.6599075,0.499783976 10.8825325,0 10.0010767,0 L10.0003589,0 C9.11890318,0 8.34152816,0.499783976 7.97042671,1.30491139 C6.77314003,3.90465213 3.90912681,6.76796779 1.30782753,7.9648567 C0.501022842,8.3350136 0,9.11565587 0,10.0014402 C0,10.885784 0.501022842,11.6664265 1.30710985,12.0365835 Z M10.0003589,3.75486083 C11.4488749,6.2004895 13.7975092,8.54961822 16.2430463,9.99999985 C13.7975092,11.4503815 11.4488748,13.7995102 10.0003589,16.2451389 C8.55112523,13.7995102 6.2032086,11.4503815 3.75767154,9.99999985 C6.2032086,8.54961822 8.55184291,6.2004895 10.0003589,3.75486083 Z" id="Shape"></path>
                                <path d="M103.643812,55.0844042 L86.5908394,35.4749248 C86.0427711,34.8412202 84.9593477,34.8426348 84.4098669,35.4735102 L67.3561877,55.0829898 C66.9832753,55.511589 66.8949911,56.1184179 67.1301802,56.6347174 C67.3653693,57.1524314 67.8795363,57.4834289 68.446674,57.4834289 L75.5510788,57.4834289 L75.5510788,82.5515324 C75.5510788,83.3521502 76.1987316,84 76.9975269,84 L94.0024733,84 C94.8012686,84 95.4489214,83.3521502 95.4489214,82.5515324 L95.4489214,57.4834288 L102.553326,57.4834288 C103.120464,57.4834288 103.634631,57.1524313 103.86982,56.6347172 C104.105009,56.1184178 104.016725,55.511589 103.643812,55.0844042 Z M94.0024732,54.5864935 C93.2036779,54.5864935 92.5560251,55.2343432 92.5560251,56.0349611 L92.5560251,81.1030646 L78.4439748,81.1030646 L78.4439748,56.0349611 C78.4439748,55.2343432 77.7963221,54.5864935 76.9975268,54.5864935 L71.6241981,54.5864935 L85.500353,38.6307171 L99.3758015,54.5864935 L94.0024732,54.5864935 Z" id="Shape"></path>
                            </g>
                        </g>
                    </g>
                </g>
            </g>
        </g>
    </g>
</svg>